<svg width="40" height="40" viewBox="0 0 40 40" fill="none" xmlns="http://www.w3.org/2000/svg">
<circle cx="20" cy="20" r="20" fill="#FFB802"/>
<path d="M29 18V12H23" stroke="black" stroke-width="2" stroke-linecap="round" stroke-linejoin="round"/>
<path d="M22 19L29 12" stroke="black" stroke-width="2" stroke-linecap="round" stroke-linejoin="round"/>
<path d="M27.9999 27.92V30.92C28.0011 31.1985 27.944 31.4741 27.8324 31.7293C27.7209 31.9845 27.5572 32.2136 27.352 32.4018C27.1468 32.5901 26.9045 32.7335 26.6407 32.8227C26.3769 32.9119 26.0973 32.945 25.8199 32.92C22.7428 32.5856 19.7869 31.5341 17.1899 29.85C14.7738 28.3146 12.7253 26.2661 11.1899 23.85C9.49991 21.2412 8.44818 18.271 8.11993 15.18C8.09494 14.9034 8.12781 14.6247 8.21643 14.3616C8.30506 14.0985 8.4475 13.8567 8.6347 13.6516C8.82189 13.4465 9.04974 13.2827 9.30372 13.1705C9.55771 13.0583 9.83227 13.0002 10.1099 13H13.1099C13.5952 12.9952 14.0657 13.1671 14.4337 13.4835C14.8017 13.8 15.042 14.2394 15.1099 14.72C15.2366 15.68 15.4714 16.6227 15.8099 17.53C15.9445 17.8879 15.9736 18.2769 15.8938 18.6509C15.8141 19.0248 15.6288 19.3681 15.3599 19.64L14.0899 20.91C15.5135 23.4135 17.5864 25.4864 20.0899 26.91L21.3599 25.64C21.6318 25.3711 21.9751 25.1858 22.3491 25.1061C22.723 25.0263 23.112 25.0554 23.4699 25.19C24.3772 25.5285 25.3199 25.7634 26.2799 25.89C26.7657 25.9585 27.2093 26.2032 27.5265 26.5775C27.8436 26.9518 28.0121 27.4296 27.9999 27.92Z" stroke="black" stroke-width="2" stroke-linecap="round" stroke-linejoin="round"/>
</svg>
