<svg width="58" height="61" viewBox="0 0 58 61" fill="none" xmlns="http://www.w3.org/2000/svg">
<path d="M28.7962 9.26221C34.347 9.29771 39.0821 11.2033 43.0356 15.0973C46.9778 18.9913 49.1302 23.8204 49.3907 29.4898C49.6626 35.5498 47.8048 40.8523 43.7833 45.2434C39.8298 49.5635 34.9474 51.7887 29.2153 51.8479C23.8798 51.907 19.2013 50.037 15.2817 46.2613C10.6599 41.7992 8.43954 36.2126 8.67743 29.6437C8.87001 24.14 10.8977 19.4056 14.6247 15.5234C18.5556 11.4163 23.3587 9.36873 28.7962 9.26221Z" fill="#0087CB"/>
<path d="M22.7698 33.4312C21.6596 33.0762 20.5381 32.7093 19.428 32.3542C18.8842 32.1766 18.3405 31.9991 17.7967 31.8216C17.5928 31.7505 17.4002 31.6795 17.2303 31.5493C16.9131 31.3008 16.8905 30.993 17.1623 30.6853C17.3436 30.4723 17.5702 30.3302 17.8194 30.2237C18.4764 29.9515 19.1334 29.6793 19.7905 29.407C24.3217 27.5843 28.853 25.7497 33.3955 23.927C34.8342 23.347 36.2615 22.7671 37.7002 22.1871C37.8928 22.1043 38.0967 22.0569 38.3119 22.0924C38.7424 22.1634 39.0709 22.5304 39.1162 23.0038C39.1389 23.2642 39.1276 23.5246 39.0822 23.785C38.5272 26.5072 37.9721 29.2413 37.417 31.9636C36.9639 34.2124 36.4994 36.4612 36.0463 38.7219C35.9444 39.2308 35.8424 39.7398 35.7405 40.2487C35.6951 40.4973 35.6272 40.734 35.5139 40.9589C35.2873 41.3968 34.9248 41.5625 34.4604 41.4678C34.1772 41.4087 33.928 41.2785 33.7014 41.1009C32.1381 39.8937 30.5748 38.6746 29.0002 37.4673C28.9323 37.4081 28.853 37.3608 28.785 37.3134C28.5131 37.2306 28.3205 37.0175 28.1053 36.8518C27.3576 36.2837 26.61 35.6919 25.8623 35.1238C25.8057 35.0764 25.7491 35.0291 25.7037 34.9699C25.6358 34.8516 25.7037 34.7805 25.7717 34.7095C26.7912 33.7627 27.7994 32.7921 28.819 31.8452C29.5553 31.1469 30.303 30.4486 31.0393 29.7503C31.7756 29.052 32.5119 28.3655 33.2483 27.679C33.826 27.1345 34.4037 26.6019 34.9701 26.0575C35.0155 26.0101 35.0608 25.9628 35.1061 25.9154C35.1401 25.8681 35.1854 25.8207 35.1627 25.7616C35.1401 25.6906 35.0721 25.6906 35.0155 25.6906C34.8115 25.6669 34.6416 25.7497 34.4717 25.8563C33.8487 26.2468 33.2483 26.6611 32.6365 27.0635C30.7787 28.2826 28.9096 29.5136 27.0518 30.7327C25.7717 31.573 24.4916 32.4134 23.2116 33.2655C23.0643 33.3484 22.9623 33.5023 22.7698 33.4312Z" fill="#FCFDFE"/>
<path d="M22.7695 33.4312C23.0754 33.301 23.3359 33.088 23.6191 32.9104C24.4348 32.3778 25.2504 31.8452 26.066 31.3008C26.6438 30.922 27.2102 30.5314 27.7879 30.1527C28.7395 29.5254 29.7024 28.8981 30.6653 28.2708C31.3336 27.8328 32.002 27.3831 32.6817 26.9333C33.2707 26.5427 33.8598 26.1521 34.4489 25.7615C34.6414 25.6432 34.834 25.5722 35.0719 25.5958C35.1399 25.6077 35.2078 25.6077 35.2305 25.6787C35.2645 25.7497 35.2418 25.8207 35.1852 25.8917C35.0492 26.0338 34.9246 26.1876 34.766 26.3178C34.4828 26.5546 34.2336 26.8268 33.9617 27.0753C33.5199 27.4659 33.1121 27.892 32.6703 28.2826C32.4891 28.4483 32.3192 28.6258 32.1379 28.7915C31.8774 29.0164 31.6281 29.2886 31.3789 29.5254C30.9938 29.8923 30.5973 30.2474 30.2121 30.6024C30.0422 30.7681 29.861 30.9338 29.7024 31.0995C29.2832 31.5138 28.8414 31.9044 28.4223 32.3186C27.9125 32.8039 27.3914 33.2774 26.893 33.7745C26.5305 34.1295 26.1453 34.4609 25.7715 34.8042C25.7148 34.8515 25.7148 34.8989 25.7488 34.9581C25.6695 36.2955 25.5789 37.633 25.4996 38.9704C25.477 39.3255 25.4316 39.6687 25.443 40.0238C25.443 40.1303 25.443 40.225 25.3637 40.3079C25.2957 40.3316 25.2164 40.3316 25.1484 40.3316C24.9445 40.3197 24.7973 40.2132 24.7406 40.012C24.684 39.7989 24.616 39.5977 24.5594 39.3847C24.0043 37.4791 23.4492 35.5617 22.8941 33.6561C22.8375 33.5733 22.8035 33.5022 22.7695 33.4312Z" fill="#CCD9E9"/>
<path d="M25.3297 40.2961C25.2957 39.8345 25.375 39.3729 25.3863 38.9231C25.409 38.426 25.4543 37.9289 25.477 37.4318C25.5109 36.9228 25.5449 36.4139 25.5789 35.9168C25.5902 35.6564 25.6129 35.396 25.6129 35.1474C25.6129 35.0646 25.6356 35.0054 25.7149 34.9581C26.6324 35.6682 27.55 36.3665 28.4563 37.0767C28.5582 37.1595 28.6715 37.2187 28.7508 37.3253C27.9012 38.1893 27.0402 39.0533 26.1906 39.9173C25.9641 40.154 25.6922 40.3434 25.3297 40.2961Z" fill="#B1C8DB"/>
</svg>
