<svg width="65" height="65" viewBox="0 0 65 65" fill="none" xmlns="http://www.w3.org/2000/svg">
<g clip-path="url(#clip0)">
<path d="M21.836 50.9463C21.8487 49.6387 21.8741 48.3311 21.8868 47.0234C21.8868 46.7188 21.9248 46.7568 21.6329 46.6299C20.0079 45.9824 18.4971 45.1699 17.1641 44.0273C15.7549 42.8213 14.6504 41.3994 13.8379 39.7363C13.0635 38.1367 12.6319 36.4356 12.3907 34.6836C12.3018 33.9981 12.251 33.3125 12.251 32.627C12.251 31.9795 12.1495 31.332 12.1368 30.6846C12.1241 30.2275 12.1114 29.7578 12.1241 29.3008C12.1368 28.3613 12.0479 27.4219 12.086 26.4824C12.1621 24.3496 12.543 22.2676 13.3809 20.2871C14.5743 17.4688 16.5293 15.3359 19.1954 13.8379C21.2012 12.7207 23.334 12.0098 25.5938 11.6416C26.9903 11.4131 28.3868 11.2861 29.7959 11.248C31.4717 11.1973 33.1475 11.21 34.836 11.2354C36.9942 11.2607 39.127 11.4639 41.2217 11.9717C43.2149 12.4414 45.0938 13.1904 46.8204 14.2949C48.9151 15.6279 50.5147 17.3926 51.5938 19.6396C52.2667 21.0234 52.6729 22.4834 52.9395 23.9941C53.1299 25.1113 53.2061 26.2285 53.1934 27.3584C53.1807 28.5518 53.1553 29.7451 53.0792 30.9258C53.0284 31.7383 53.0284 32.5508 52.9903 33.3633C52.8506 35.6104 52.3936 37.7813 51.4034 39.8125C50.1846 42.3008 48.3438 44.1797 45.9317 45.5381C43.9385 46.6553 41.8057 47.3535 39.5713 47.7344C37.8194 48.0264 36.042 48.166 34.2647 48.166C33.1729 48.166 32.0811 48.1533 30.9893 48.166C30.4307 48.166 29.8721 48.1787 29.3135 48.1152C29.1358 48.1025 29.0088 48.1533 28.8946 48.293C28.0186 49.3086 27.1426 50.3242 26.254 51.3398C25.1622 52.5967 24.0704 53.8535 22.9913 55.0977C22.877 55.2246 22.75 55.3516 22.6104 55.4404C22.2676 55.6689 21.9122 55.542 21.8233 55.1357C21.7979 55.0469 21.8106 54.9326 21.8106 54.8438C21.7979 53.5488 21.8233 52.2412 21.836 50.9463Z" fill="#7143B9"/>
<path d="M20.0967 22.8389C20.1348 21.2901 20.8457 20.1221 22.1279 19.2842C22.6611 18.9287 23.2451 18.6494 23.8799 18.5225C24.54 18.3828 25.1748 18.4717 25.7334 18.8907C26.1016 19.1573 26.4062 19.4873 26.7109 19.8174C27.7266 20.9346 28.5898 22.1407 29.2881 23.4864C29.4023 23.7149 29.5039 23.9561 29.5801 24.21C29.7959 24.9336 29.6309 25.5684 29.1484 26.127C28.9707 26.3301 28.7676 26.5078 28.5518 26.6729C28.3486 26.8125 28.1455 26.9649 27.9551 27.1426C27.5107 27.5616 27.3838 28.0694 27.5234 28.6534C27.5742 28.8946 27.6631 29.1231 27.752 29.3389C28.2725 30.4815 28.9707 31.5098 29.8721 32.3985C30.4053 32.919 30.9766 33.376 31.6113 33.7696C32.2207 34.1504 32.8301 34.5059 33.5156 34.7471C34.1504 34.9756 34.6328 34.836 35.0518 34.3028C35.2295 34.0743 35.3818 33.833 35.585 33.6172C35.9658 33.211 36.3975 32.9063 36.9434 32.7793C37.54 32.6397 38.1113 32.7412 38.6572 32.9825C39.1777 33.1983 39.6348 33.5284 40.0918 33.8457C41.0059 34.4805 41.8945 35.1534 42.7578 35.8516C42.9863 36.042 43.1895 36.2578 43.3799 36.4991C43.8242 37.083 43.9131 37.7305 43.7227 38.416C43.5449 39.0762 43.2148 39.6475 42.7832 40.168C42.0342 41.0821 41.1201 41.7676 39.9902 42.1358C39.6855 42.2373 39.3809 42.3008 39.0635 42.3262C38.6572 42.3643 38.2764 42.2246 37.8955 42.1104C37.5273 42.0088 37.1846 41.8311 36.8418 41.6787C35.1279 40.917 33.4775 40.0157 31.916 38.9746C29.5674 37.4131 27.4727 35.585 25.6445 33.4395C24.2861 31.8399 23.1055 30.1133 22.1025 28.2598C21.4551 27.0791 20.8838 25.8604 20.4014 24.6035C20.2109 24.0576 20.0967 23.3594 20.0967 22.8389Z" fill="white"/>
<path d="M44.548 28.0059C44.5353 28.4248 44.5861 28.7295 44.548 29.0215C44.4591 29.7451 43.8244 30.126 43.1515 29.8467C42.7453 29.6817 42.6183 29.3262 42.5802 28.9326C42.5422 28.4502 42.5041 27.9678 42.4279 27.4854C42.174 26 41.7677 24.5654 40.9679 23.2705C40.3713 22.3057 39.5968 21.5186 38.632 20.8965C37.5148 20.1729 36.2707 19.7539 34.9758 19.4619C34.4172 19.335 33.8459 19.2334 33.2746 19.1826C33.1349 19.1699 33.008 19.1445 32.881 19.0938C32.4875 18.9541 32.2843 18.6621 32.3097 18.2432C32.3605 17.5068 32.7795 17.2149 33.3508 17.2149C35.5217 17.1768 37.5021 17.7481 39.3176 18.9287C40.384 19.627 41.3361 20.4522 42.1232 21.4551C43.6466 23.3975 44.5353 25.6065 44.548 28.0059Z" fill="white"/>
<path d="M41.2598 27.7773C41.2471 27.9932 41.2852 28.2725 41.2218 28.5517C41.1329 29.0215 40.8028 29.2881 40.3077 29.3008C39.7872 29.3135 39.4571 29.085 39.3428 28.6152C39.2921 28.4375 39.2921 28.2471 39.2667 28.0566C39.1778 27.206 38.9747 26.3682 38.6446 25.5683C38.1876 24.4258 37.3624 23.6514 36.2325 23.1689C35.4454 22.8389 34.6329 22.5976 33.795 22.4707C33.5665 22.4326 33.3507 22.3818 33.1475 22.2803C33.046 22.2295 32.9571 22.166 32.8936 22.0771C32.6143 21.7344 32.627 21.3662 32.7794 20.9853C32.9063 20.6426 33.1729 20.4521 33.5411 20.4141C33.8458 20.376 34.1505 20.4267 34.4552 20.4775C35.3057 20.6045 36.1309 20.8203 36.918 21.1885C37.921 21.6709 38.7843 22.3437 39.5206 23.1816C40.1427 23.9053 40.6124 24.7051 40.9171 25.6064C41.1329 26.3047 41.2471 27.0029 41.2598 27.7773Z" fill="white"/>
<path d="M38.0986 27.5361C38.0986 27.79 38.0986 28.044 38.0098 28.2852C37.8828 28.6533 37.6162 28.8692 37.2354 28.9199C36.8418 28.9707 36.5244 28.8311 36.3086 28.501C36.1943 28.3359 36.1436 28.1582 36.1182 27.9678C36.0674 27.6504 36.0293 27.3203 35.9023 27.0283C35.6357 26.3809 35.1279 26 34.4678 25.8223C34.3408 25.7842 34.2012 25.7588 34.0742 25.7334C33.9727 25.708 33.8584 25.6826 33.7568 25.6572C33.2871 25.5176 33.0459 25.2256 33.0459 24.8193C33.0459 24.3369 33.3125 23.9434 33.7568 23.8164C34.1885 23.6895 34.6328 23.7149 35.0645 23.8291C36.0928 24.1211 36.8545 24.7686 37.4512 25.6318C37.8447 26.1904 38.0986 26.8252 38.0986 27.5361Z" fill="white"/>
</g>
<defs>
<clipPath id="clip0">
<rect width="65" height="65" fill="white"/>
</clipPath>
</defs>
</svg>
